<mxfile host="app.diagrams.net" modified="2020-11-20T03:48:42.942Z" agent="5.0 (Windows)" etag="QwTd2fjZUwREZCNESTJX" version="13.10.0" type="github">
  <diagram id="o9wrVbWIL4ODcBylfV1H" name="Page-1">
    <mxGraphModel dx="3937" dy="3949" grid="1" gridSize="10" guides="1" tooltips="1" connect="1" arrows="1" fold="1" page="1" pageScale="1" pageWidth="2339" pageHeight="3300" math="0" shadow="0">
      <root>
        <mxCell id="0" />
        <mxCell id="1" parent="0" />
        <mxCell id="gxyS9pcXqX11lwIKly3A-179" value="" style="edgeStyle=orthogonalEdgeStyle;rounded=0;orthogonalLoop=1;jettySize=auto;html=1;entryX=0;entryY=0.5;entryDx=0;entryDy=0;" edge="1" parent="1" source="gxyS9pcXqX11lwIKly3A-1" target="gxyS9pcXqX11lwIKly3A-3">
          <mxGeometry relative="1" as="geometry">
            <mxPoint x="188" y="135" as="targetPoint" />
          </mxGeometry>
        </mxCell>
        <mxCell id="gxyS9pcXqX11lwIKly3A-1" value="需求管理/Confluence" style="rounded=0;whiteSpace=wrap;html=1;" vertex="1" parent="1">
          <mxGeometry x="-12" y="100" width="120" height="70" as="geometry" />
        </mxCell>
        <mxCell id="gxyS9pcXqX11lwIKly3A-37" value="" style="edgeStyle=orthogonalEdgeStyle;rounded=0;orthogonalLoop=1;jettySize=auto;html=1;" edge="1" parent="1" source="gxyS9pcXqX11lwIKly3A-3" target="gxyS9pcXqX11lwIKly3A-36">
          <mxGeometry relative="1" as="geometry" />
        </mxCell>
        <mxCell id="gxyS9pcXqX11lwIKly3A-39" value="" style="edgeStyle=orthogonalEdgeStyle;rounded=0;orthogonalLoop=1;jettySize=auto;html=1;" edge="1" parent="1" target="gxyS9pcXqX11lwIKly3A-12">
          <mxGeometry relative="1" as="geometry">
            <mxPoint x="329" y="170" as="sourcePoint" />
          </mxGeometry>
        </mxCell>
        <mxCell id="gxyS9pcXqX11lwIKly3A-3" value="&lt;div&gt;代码仓库/&lt;/div&gt;/Gitlab" style="rounded=0;whiteSpace=wrap;html=1;" vertex="1" parent="1">
          <mxGeometry x="269" y="100" width="120" height="70" as="geometry" />
        </mxCell>
        <mxCell id="gxyS9pcXqX11lwIKly3A-129" value="" style="edgeStyle=orthogonalEdgeStyle;rounded=0;orthogonalLoop=1;jettySize=auto;html=1;entryX=0.396;entryY=1;entryDx=0;entryDy=0;entryPerimeter=0;" edge="1" parent="1" source="gxyS9pcXqX11lwIKly3A-11" target="gxyS9pcXqX11lwIKly3A-1">
          <mxGeometry relative="1" as="geometry">
            <mxPoint x="35.51999999999998" y="334.52" as="targetPoint" />
          </mxGeometry>
        </mxCell>
        <mxCell id="gxyS9pcXqX11lwIKly3A-130" value="需求排期" style="edgeLabel;html=1;align=center;verticalAlign=middle;resizable=0;points=[];" vertex="1" connectable="0" parent="gxyS9pcXqX11lwIKly3A-129">
          <mxGeometry x="-0.273" y="-3" relative="1" as="geometry">
            <mxPoint x="60.29" y="11.53" as="offset" />
          </mxGeometry>
        </mxCell>
        <mxCell id="gxyS9pcXqX11lwIKly3A-221" value="" style="edgeStyle=orthogonalEdgeStyle;rounded=0;orthogonalLoop=1;jettySize=auto;html=1;" edge="1" parent="1" source="gxyS9pcXqX11lwIKly3A-11">
          <mxGeometry relative="1" as="geometry">
            <mxPoint x="480" y="820" as="targetPoint" />
            <Array as="points">
              <mxPoint x="329" y="820" />
            </Array>
          </mxGeometry>
        </mxCell>
        <mxCell id="gxyS9pcXqX11lwIKly3A-11" value="缺陷管理/Jira" style="whiteSpace=wrap;html=1;aspect=fixed;" vertex="1" parent="1">
          <mxGeometry x="284" y="603" width="90" height="90" as="geometry" />
        </mxCell>
        <mxCell id="gxyS9pcXqX11lwIKly3A-74" value="" style="edgeStyle=orthogonalEdgeStyle;rounded=0;orthogonalLoop=1;jettySize=auto;html=1;entryX=0.5;entryY=0;entryDx=0;entryDy=0;" edge="1" parent="1" source="gxyS9pcXqX11lwIKly3A-12" target="gxyS9pcXqX11lwIKly3A-11">
          <mxGeometry relative="1" as="geometry" />
        </mxCell>
        <mxCell id="gxyS9pcXqX11lwIKly3A-12" value="SAST" style="shape=hexagon;perimeter=hexagonPerimeter2;whiteSpace=wrap;html=1;fixedSize=1;fillColor=#FFFF66;" vertex="1" parent="1">
          <mxGeometry x="279" y="441" width="100" height="80" as="geometry" />
        </mxCell>
        <mxCell id="gxyS9pcXqX11lwIKly3A-45" value="" style="edgeStyle=orthogonalEdgeStyle;rounded=0;orthogonalLoop=1;jettySize=auto;html=1;" edge="1" parent="1" source="gxyS9pcXqX11lwIKly3A-36" target="gxyS9pcXqX11lwIKly3A-44">
          <mxGeometry relative="1" as="geometry" />
        </mxCell>
        <mxCell id="gxyS9pcXqX11lwIKly3A-36" value="&lt;div&gt;组件库/&lt;/div&gt;&lt;div&gt;Nexus&lt;/div&gt;" style="rounded=0;whiteSpace=wrap;html=1;" vertex="1" parent="1">
          <mxGeometry x="469" y="100" width="120" height="70" as="geometry" />
        </mxCell>
        <mxCell id="gxyS9pcXqX11lwIKly3A-40" value="拉取代码" style="text;html=1;align=center;verticalAlign=middle;resizable=0;points=[];autosize=1;rotation=-1;" vertex="1" parent="1">
          <mxGeometry x="299" y="305.5" width="60" height="20" as="geometry" />
        </mxCell>
        <mxCell id="gxyS9pcXqX11lwIKly3A-60" value="" style="edgeStyle=orthogonalEdgeStyle;rounded=0;orthogonalLoop=1;jettySize=auto;html=1;entryX=0.5;entryY=1;entryDx=0;entryDy=0;" edge="1" parent="1" source="gxyS9pcXqX11lwIKly3A-41" target="gxyS9pcXqX11lwIKly3A-36">
          <mxGeometry relative="1" as="geometry">
            <mxPoint x="529" y="332" as="targetPoint" />
          </mxGeometry>
        </mxCell>
        <mxCell id="gxyS9pcXqX11lwIKly3A-211" value="" style="edgeStyle=orthogonalEdgeStyle;rounded=0;orthogonalLoop=1;jettySize=auto;html=1;" edge="1" parent="1" source="gxyS9pcXqX11lwIKly3A-41">
          <mxGeometry relative="1" as="geometry">
            <mxPoint x="529" y="609" as="targetPoint" />
          </mxGeometry>
        </mxCell>
        <mxCell id="gxyS9pcXqX11lwIKly3A-41" value="SCA" style="shape=hexagon;perimeter=hexagonPerimeter2;whiteSpace=wrap;html=1;fixedSize=1;fillColor=#FFFF00;" vertex="1" parent="1">
          <mxGeometry x="479" y="439" width="100" height="80" as="geometry" />
        </mxCell>
        <mxCell id="gxyS9pcXqX11lwIKly3A-47" value="" style="edgeStyle=orthogonalEdgeStyle;rounded=0;orthogonalLoop=1;jettySize=auto;html=1;entryX=0;entryY=0.5;entryDx=0;entryDy=0;" edge="1" parent="1">
          <mxGeometry relative="1" as="geometry">
            <mxPoint x="772" y="135" as="sourcePoint" />
            <mxPoint x="1013" y="135" as="targetPoint" />
          </mxGeometry>
        </mxCell>
        <mxCell id="gxyS9pcXqX11lwIKly3A-44" value="&lt;div&gt;打包/构建/&lt;/div&gt;&lt;div&gt;TESS-CIS/Jenkins&lt;br&gt;&lt;/div&gt;" style="rounded=0;whiteSpace=wrap;html=1;" vertex="1" parent="1">
          <mxGeometry x="652" y="100" width="120" height="70" as="geometry" />
        </mxCell>
        <mxCell id="gxyS9pcXqX11lwIKly3A-54" value="" style="edgeStyle=orthogonalEdgeStyle;rounded=0;orthogonalLoop=1;jettySize=auto;html=1;exitX=1;exitY=0.5;exitDx=0;exitDy=0;" edge="1" parent="1" source="gxyS9pcXqX11lwIKly3A-205" target="gxyS9pcXqX11lwIKly3A-53">
          <mxGeometry relative="1" as="geometry">
            <mxPoint x="1334" y="134.5" as="sourcePoint" />
          </mxGeometry>
        </mxCell>
        <mxCell id="gxyS9pcXqX11lwIKly3A-48" value="&lt;div&gt;Test/QA&lt;br&gt;&lt;/div&gt;" style="rounded=0;whiteSpace=wrap;html=1;" vertex="1" parent="1">
          <mxGeometry x="1013" y="100" width="120" height="70" as="geometry" />
        </mxCell>
        <mxCell id="gxyS9pcXqX11lwIKly3A-121" value="" style="edgeStyle=orthogonalEdgeStyle;rounded=0;orthogonalLoop=1;jettySize=auto;html=1;" edge="1" parent="1" source="gxyS9pcXqX11lwIKly3A-50">
          <mxGeometry relative="1" as="geometry">
            <mxPoint x="1085" y="170" as="targetPoint" />
          </mxGeometry>
        </mxCell>
        <mxCell id="gxyS9pcXqX11lwIKly3A-50" value="IAST" style="shape=hexagon;perimeter=hexagonPerimeter2;whiteSpace=wrap;html=1;fixedSize=1;fillColor=#FF2908;" vertex="1" parent="1">
          <mxGeometry x="1035" y="441" width="100" height="80" as="geometry" />
        </mxCell>
        <mxCell id="gxyS9pcXqX11lwIKly3A-184" value="" style="edgeStyle=orthogonalEdgeStyle;rounded=0;orthogonalLoop=1;jettySize=auto;html=1;" edge="1" parent="1">
          <mxGeometry relative="1" as="geometry">
            <mxPoint x="900" y="521" as="sourcePoint" />
            <mxPoint x="900" y="652" as="targetPoint" />
          </mxGeometry>
        </mxCell>
        <mxCell id="gxyS9pcXqX11lwIKly3A-51" value="容器镜像扫描" style="shape=hexagon;perimeter=hexagonPerimeter2;whiteSpace=wrap;html=1;fixedSize=1;fillColor=#FFFF33;" vertex="1" parent="1">
          <mxGeometry x="850" y="439" width="100" height="80" as="geometry" />
        </mxCell>
        <mxCell id="gxyS9pcXqX11lwIKly3A-133" value="" style="edgeStyle=orthogonalEdgeStyle;rounded=0;orthogonalLoop=1;jettySize=auto;html=1;exitX=0.5;exitY=1;exitDx=0;exitDy=0;" edge="1" parent="1" source="gxyS9pcXqX11lwIKly3A-53">
          <mxGeometry relative="1" as="geometry">
            <mxPoint x="1470" y="440" as="targetPoint" />
            <Array as="points">
              <mxPoint x="1470" y="169" />
            </Array>
          </mxGeometry>
        </mxCell>
        <mxCell id="gxyS9pcXqX11lwIKly3A-53" value="生产环境" style="rounded=0;whiteSpace=wrap;html=1;" vertex="1" parent="1">
          <mxGeometry x="1404" y="100.5" width="120" height="70" as="geometry" />
        </mxCell>
        <mxCell id="gxyS9pcXqX11lwIKly3A-90" value="" style="edgeStyle=orthogonalEdgeStyle;rounded=0;orthogonalLoop=1;jettySize=auto;html=1;exitX=0.5;exitY=1;exitDx=0;exitDy=0;" edge="1" parent="1">
          <mxGeometry relative="1" as="geometry">
            <mxPoint x="1468" y="521" as="sourcePoint" />
            <mxPoint x="1135" y="654" as="targetPoint" />
            <Array as="points">
              <mxPoint x="1474" y="521" />
              <mxPoint x="1474" y="654" />
              <mxPoint x="1140" y="654" />
            </Array>
          </mxGeometry>
        </mxCell>
        <mxCell id="gxyS9pcXqX11lwIKly3A-96" value="漏铜同步" style="edgeLabel;html=1;align=center;verticalAlign=middle;resizable=0;points=[];" vertex="1" connectable="0" parent="gxyS9pcXqX11lwIKly3A-90">
          <mxGeometry x="-0.4151" y="4" relative="1" as="geometry">
            <mxPoint x="0.06999999999999318" y="-70" as="offset" />
          </mxGeometry>
        </mxCell>
        <mxCell id="gxyS9pcXqX11lwIKly3A-55" value="DAST" style="shape=hexagon;perimeter=hexagonPerimeter2;whiteSpace=wrap;html=1;fixedSize=1;fillColor=#009900;" vertex="1" parent="1">
          <mxGeometry x="1424" y="441" width="100" height="80" as="geometry" />
        </mxCell>
        <mxCell id="gxyS9pcXqX11lwIKly3A-61" value="定时扫描" style="text;html=1;align=center;verticalAlign=middle;resizable=0;points=[];autosize=1;" vertex="1" parent="1">
          <mxGeometry x="501" y="308" width="60" height="20" as="geometry" />
        </mxCell>
        <mxCell id="gxyS9pcXqX11lwIKly3A-69" value="缺陷同步" style="text;html=1;align=center;verticalAlign=middle;resizable=0;points=[];autosize=1;" vertex="1" parent="1">
          <mxGeometry x="299" y="556" width="60" height="20" as="geometry" />
        </mxCell>
        <mxCell id="gxyS9pcXqX11lwIKly3A-86" value="" style="shape=mxgraph.signs.people.man_1;html=1;pointerEvents=1;fillColor=#000000;strokeColor=none;verticalLabelPosition=bottom;verticalAlign=top;align=center;" vertex="1" parent="1">
          <mxGeometry x="158.5" y="279" width="37" height="73" as="geometry" />
        </mxCell>
        <mxCell id="gxyS9pcXqX11lwIKly3A-95" value="获取请求数据、数据流信息" style="text;html=1;align=center;verticalAlign=middle;resizable=0;points=[];autosize=1;" vertex="1" parent="1">
          <mxGeometry x="1044" y="376" width="160" height="20" as="geometry" />
        </mxCell>
        <mxCell id="gxyS9pcXqX11lwIKly3A-97" value="周期扫描" style="text;html=1;align=center;verticalAlign=middle;resizable=0;points=[];autosize=1;" vertex="1" parent="1">
          <mxGeometry x="1444" y="383" width="60" height="20" as="geometry" />
        </mxCell>
        <mxCell id="gxyS9pcXqX11lwIKly3A-100" value="漏洞同步" style="text;html=1;align=center;verticalAlign=middle;resizable=0;points=[];autosize=1;" vertex="1" parent="1">
          <mxGeometry x="871" y="570" width="60" height="20" as="geometry" />
        </mxCell>
        <mxCell id="gxyS9pcXqX11lwIKly3A-105" value="拉取镜像" style="text;html=1;align=center;verticalAlign=middle;resizable=0;points=[];autosize=1;" vertex="1" parent="1">
          <mxGeometry x="870" y="363" width="60" height="20" as="geometry" />
        </mxCell>
        <mxCell id="gxyS9pcXqX11lwIKly3A-106" value="" style="endArrow=classic;html=1;exitX=0.18;exitY=0.01;exitDx=0;exitDy=0;exitPerimeter=0;entryX=0.592;entryY=1;entryDx=0;entryDy=0;entryPerimeter=0;" edge="1" parent="1" source="gxyS9pcXqX11lwIKly3A-41" target="gxyS9pcXqX11lwIKly3A-3">
          <mxGeometry width="50" height="50" relative="1" as="geometry">
            <mxPoint x="450" y="462" as="sourcePoint" />
            <mxPoint x="340" y="190" as="targetPoint" />
          </mxGeometry>
        </mxCell>
        <mxCell id="gxyS9pcXqX11lwIKly3A-118" value="Developer" style="text;html=1;align=center;verticalAlign=middle;resizable=0;points=[];autosize=1;" vertex="1" parent="1">
          <mxGeometry x="130.5" y="353" width="70" height="20" as="geometry" />
        </mxCell>
        <mxCell id="gxyS9pcXqX11lwIKly3A-119" value="" style="shape=mxgraph.signs.people.man_1;html=1;pointerEvents=1;fillColor=#000000;strokeColor=none;verticalLabelPosition=bottom;verticalAlign=top;align=center;" vertex="1" parent="1">
          <mxGeometry x="949" y="278" width="37" height="73" as="geometry" />
        </mxCell>
        <mxCell id="gxyS9pcXqX11lwIKly3A-122" value="" style="endArrow=classic;html=1;exitX=0.9;exitY=0.2;exitDx=0;exitDy=0;exitPerimeter=0;" edge="1" parent="1" source="gxyS9pcXqX11lwIKly3A-119">
          <mxGeometry width="50" height="50" relative="1" as="geometry">
            <mxPoint x="996" y="238.5" as="sourcePoint" />
            <mxPoint x="1078" y="169.5" as="targetPoint" />
          </mxGeometry>
        </mxCell>
        <mxCell id="gxyS9pcXqX11lwIKly3A-123" value="Tester" style="text;html=1;align=center;verticalAlign=middle;resizable=0;points=[];autosize=1;" vertex="1" parent="1">
          <mxGeometry x="931" y="351" width="50" height="20" as="geometry" />
        </mxCell>
        <mxCell id="gxyS9pcXqX11lwIKly3A-164" value="" style="edgeStyle=orthogonalEdgeStyle;rounded=0;orthogonalLoop=1;jettySize=auto;html=1;" edge="1" parent="1" source="gxyS9pcXqX11lwIKly3A-134">
          <mxGeometry relative="1" as="geometry">
            <mxPoint x="1274" y="169.5" as="targetPoint" />
          </mxGeometry>
        </mxCell>
        <mxCell id="gxyS9pcXqX11lwIKly3A-134" value="" style="shape=mxgraph.signs.people.man_1;html=1;pointerEvents=1;fillColor=#000000;strokeColor=none;verticalLabelPosition=bottom;verticalAlign=top;align=center;" vertex="1" parent="1">
          <mxGeometry x="1255.5" y="278" width="37" height="73" as="geometry" />
        </mxCell>
        <mxCell id="gxyS9pcXqX11lwIKly3A-137" value="SRE" style="text;html=1;align=center;verticalAlign=middle;resizable=0;points=[];autosize=1;" vertex="1" parent="1">
          <mxGeometry x="1417" y="356" width="40" height="20" as="geometry" />
        </mxCell>
        <mxCell id="gxyS9pcXqX11lwIKly3A-144" value="" style="verticalLabelPosition=bottom;shadow=0;dashed=0;align=center;html=1;verticalAlign=top;strokeWidth=1;shape=mxgraph.mockup.markup.curlyBrace;strokeColor=#999999;fillColor=#00FF00;" vertex="1" parent="1">
          <mxGeometry x="650" y="70" width="480" height="20" as="geometry" />
        </mxCell>
        <mxCell id="gxyS9pcXqX11lwIKly3A-145" value="&lt;b&gt;Jenkins pipeline&lt;/b&gt;" style="text;html=1;align=center;verticalAlign=middle;resizable=0;points=[];autosize=1;" vertex="1" parent="1">
          <mxGeometry x="820" y="-140" width="110" height="20" as="geometry" />
        </mxCell>
        <mxCell id="gxyS9pcXqX11lwIKly3A-150" value="" style="edgeStyle=orthogonalEdgeStyle;rounded=0;orthogonalLoop=1;jettySize=auto;html=1;entryX=0;entryY=0.5;entryDx=0;entryDy=0;" edge="1" parent="1" source="gxyS9pcXqX11lwIKly3A-48" target="gxyS9pcXqX11lwIKly3A-205">
          <mxGeometry relative="1" as="geometry">
            <mxPoint x="1154" y="135" as="sourcePoint" />
            <mxPoint x="1214" y="135.0666666666666" as="targetPoint" />
            <Array as="points" />
          </mxGeometry>
        </mxCell>
        <mxCell id="gxyS9pcXqX11lwIKly3A-151" value="" style="shape=mxgraph.signs.people.man_1;html=1;pointerEvents=1;fillColor=#000000;strokeColor=none;verticalLabelPosition=bottom;verticalAlign=top;align=center;" vertex="1" parent="1">
          <mxGeometry x="1420" y="281.5" width="37" height="73" as="geometry" />
        </mxCell>
        <mxCell id="gxyS9pcXqX11lwIKly3A-152" value="Security" style="text;html=1;align=center;verticalAlign=middle;resizable=0;points=[];autosize=1;" vertex="1" parent="1">
          <mxGeometry x="1244" y="359" width="60" height="20" as="geometry" />
        </mxCell>
        <mxCell id="gxyS9pcXqX11lwIKly3A-156" value="" style="endArrow=classic;html=1;entryX=0.378;entryY=1.086;entryDx=0;entryDy=0;exitX=1;exitY=0.5;exitDx=0;exitDy=0;exitPerimeter=0;entryPerimeter=0;" edge="1" parent="1" source="gxyS9pcXqX11lwIKly3A-86" target="gxyS9pcXqX11lwIKly3A-3">
          <mxGeometry width="50" height="50" relative="1" as="geometry">
            <mxPoint x="200" y="250" as="sourcePoint" />
            <mxPoint x="320" y="180" as="targetPoint" />
          </mxGeometry>
        </mxCell>
        <mxCell id="gxyS9pcXqX11lwIKly3A-158" value="" style="endArrow=classic;html=1;entryX=0;entryY=0;entryDx=0;entryDy=0;exitX=1;exitY=1;exitDx=0;exitDy=0;" edge="1" parent="1" source="gxyS9pcXqX11lwIKly3A-44" target="gxyS9pcXqX11lwIKly3A-169">
          <mxGeometry width="50" height="50" relative="1" as="geometry">
            <mxPoint x="770" y="100" as="sourcePoint" />
            <mxPoint x="820" y="50" as="targetPoint" />
          </mxGeometry>
        </mxCell>
        <mxCell id="gxyS9pcXqX11lwIKly3A-159" value="" style="endArrow=classic;html=1;entryX=0.5;entryY=1;entryDx=0;entryDy=0;exitX=0;exitY=0.5;exitDx=0;exitDy=0;exitPerimeter=0;" edge="1" parent="1" source="gxyS9pcXqX11lwIKly3A-86" target="gxyS9pcXqX11lwIKly3A-1">
          <mxGeometry width="50" height="50" relative="1" as="geometry">
            <mxPoint x="50" y="260" as="sourcePoint" />
            <mxPoint x="100" y="210" as="targetPoint" />
          </mxGeometry>
        </mxCell>
        <mxCell id="gxyS9pcXqX11lwIKly3A-213" value="" style="edgeStyle=orthogonalEdgeStyle;rounded=0;orthogonalLoop=1;jettySize=auto;html=1;entryX=0.5;entryY=0;entryDx=0;entryDy=0;" edge="1" parent="1" source="gxyS9pcXqX11lwIKly3A-169" target="gxyS9pcXqX11lwIKly3A-51">
          <mxGeometry relative="1" as="geometry">
            <Array as="points">
              <mxPoint x="900" y="310" />
              <mxPoint x="900" y="310" />
            </Array>
          </mxGeometry>
        </mxCell>
        <mxCell id="gxyS9pcXqX11lwIKly3A-169" value="&lt;div&gt;镜像仓库/Harbor&lt;br&gt;&lt;/div&gt;" style="rounded=0;whiteSpace=wrap;html=1;" vertex="1" parent="1">
          <mxGeometry x="830" y="189" width="120" height="70" as="geometry" />
        </mxCell>
        <mxCell id="gxyS9pcXqX11lwIKly3A-175" value="应用部署" style="text;html=1;align=center;verticalAlign=middle;resizable=0;points=[];autosize=1;" vertex="1" parent="1">
          <mxGeometry x="861" y="111" width="60" height="20" as="geometry" />
        </mxCell>
        <mxCell id="gxyS9pcXqX11lwIKly3A-176" value="" style="endArrow=classic;html=1;entryX=0;entryY=1;entryDx=0;entryDy=0;exitX=1;exitY=0;exitDx=0;exitDy=0;" edge="1" parent="1" source="gxyS9pcXqX11lwIKly3A-169" target="gxyS9pcXqX11lwIKly3A-48">
          <mxGeometry width="50" height="50" relative="1" as="geometry">
            <mxPoint x="951" y="170" as="sourcePoint" />
            <mxPoint x="1009" y="170" as="targetPoint" />
          </mxGeometry>
        </mxCell>
        <mxCell id="gxyS9pcXqX11lwIKly3A-187" value="功能测试" style="text;html=1;align=center;verticalAlign=middle;resizable=0;points=[];autosize=1;" vertex="1" parent="1">
          <mxGeometry x="993" y="220" width="60" height="20" as="geometry" />
        </mxCell>
        <mxCell id="gxyS9pcXqX11lwIKly3A-191" value="" style="endArrow=classic;html=1;exitX=0.25;exitY=-0.012;exitDx=0;exitDy=0;exitPerimeter=0;entryX=1.009;entryY=0.813;entryDx=0;entryDy=0;entryPerimeter=0;" edge="1" parent="1">
          <mxGeometry relative="1" as="geometry">
            <mxPoint x="1054" y="440.03999999999996" as="sourcePoint" />
            <mxPoint x="980.3329999999996" y="337.34900000000016" as="targetPoint" />
          </mxGeometry>
        </mxCell>
        <mxCell id="gxyS9pcXqX11lwIKly3A-192" value="" style="shape=message;html=1;outlineConnect=0;" vertex="1" parent="gxyS9pcXqX11lwIKly3A-191">
          <mxGeometry width="20" height="14" relative="1" as="geometry">
            <mxPoint x="-10" y="-7" as="offset" />
          </mxGeometry>
        </mxCell>
        <mxCell id="gxyS9pcXqX11lwIKly3A-189" value="" style="endArrow=classic;html=2;exitX=0.18;exitY=0.021;exitDx=0;exitDy=0;exitPerimeter=0;entryX=0.968;entryY=0.635;entryDx=0;entryDy=0;entryPerimeter=0;" edge="1" parent="1" source="gxyS9pcXqX11lwIKly3A-12" target="gxyS9pcXqX11lwIKly3A-86">
          <mxGeometry relative="1" as="geometry">
            <mxPoint x="120" y="441" as="sourcePoint" />
            <mxPoint x="220" y="441" as="targetPoint" />
          </mxGeometry>
        </mxCell>
        <mxCell id="gxyS9pcXqX11lwIKly3A-190" value="" style="shape=message;html=1;outlineConnect=0;" vertex="1" parent="gxyS9pcXqX11lwIKly3A-189">
          <mxGeometry width="20" height="14" relative="1" as="geometry">
            <mxPoint x="-10" y="-7" as="offset" />
          </mxGeometry>
        </mxCell>
        <mxCell id="gxyS9pcXqX11lwIKly3A-200" value="定时扫描" style="text;html=1;align=center;verticalAlign=middle;resizable=0;points=[];autosize=1;" vertex="1" parent="1">
          <mxGeometry x="388" y="304" width="60" height="20" as="geometry" />
        </mxCell>
        <mxCell id="gxyS9pcXqX11lwIKly3A-216" value="" style="edgeStyle=orthogonalEdgeStyle;rounded=0;orthogonalLoop=1;jettySize=auto;html=1;entryX=1;entryY=0.5;entryDx=0;entryDy=0;" edge="1" parent="1" source="gxyS9pcXqX11lwIKly3A-76" target="gxyS9pcXqX11lwIKly3A-212">
          <mxGeometry relative="1" as="geometry">
            <mxPoint x="960" y="654" as="targetPoint" />
          </mxGeometry>
        </mxCell>
        <mxCell id="gxyS9pcXqX11lwIKly3A-224" value="同步" style="edgeLabel;html=1;align=center;verticalAlign=middle;resizable=0;points=[];" vertex="1" connectable="0" parent="gxyS9pcXqX11lwIKly3A-216">
          <mxGeometry x="-0.0695" y="2" relative="1" as="geometry">
            <mxPoint as="offset" />
          </mxGeometry>
        </mxCell>
        <mxCell id="gxyS9pcXqX11lwIKly3A-76" value="漏洞管理平台" style="whiteSpace=wrap;html=1;aspect=fixed;" vertex="1" parent="1">
          <mxGeometry x="1040" y="609" width="90" height="90" as="geometry" />
        </mxCell>
        <mxCell id="gxyS9pcXqX11lwIKly3A-203" value="" style="edgeStyle=orthogonalEdgeStyle;rounded=0;orthogonalLoop=1;jettySize=auto;html=1;" edge="1" parent="1" source="gxyS9pcXqX11lwIKly3A-50" target="gxyS9pcXqX11lwIKly3A-76">
          <mxGeometry relative="1" as="geometry">
            <mxPoint x="1085" y="521" as="sourcePoint" />
            <mxPoint x="1085" y="670" as="targetPoint" />
          </mxGeometry>
        </mxCell>
        <mxCell id="gxyS9pcXqX11lwIKly3A-205" value="&lt;div&gt;是否人工&lt;/div&gt;&lt;div&gt;评估&lt;/div&gt;" style="rhombus;whiteSpace=wrap;html=1;fillColor=#FFFFFF;" vertex="1" parent="1">
          <mxGeometry x="1234" y="95.5" width="80" height="80" as="geometry" />
        </mxCell>
        <mxCell id="gxyS9pcXqX11lwIKly3A-219" value="" style="edgeStyle=orthogonalEdgeStyle;rounded=0;orthogonalLoop=1;jettySize=auto;html=1;" edge="1" parent="1" source="gxyS9pcXqX11lwIKly3A-212" target="gxyS9pcXqX11lwIKly3A-218">
          <mxGeometry relative="1" as="geometry" />
        </mxCell>
        <mxCell id="gxyS9pcXqX11lwIKly3A-212" value="SOC" style="whiteSpace=wrap;html=1;aspect=fixed;" vertex="1" parent="1">
          <mxGeometry x="485" y="609" width="90" height="90" as="geometry" />
        </mxCell>
        <mxCell id="gxyS9pcXqX11lwIKly3A-218" value="Pandora" style="whiteSpace=wrap;html=1;aspect=fixed;" vertex="1" parent="1">
          <mxGeometry x="485" y="779" width="90" height="90" as="geometry" />
        </mxCell>
        <mxCell id="gxyS9pcXqX11lwIKly3A-222" value="渗透测试" style="text;html=1;align=center;verticalAlign=middle;resizable=0;points=[];autosize=1;" vertex="1" parent="1">
          <mxGeometry x="1230" y="210" width="60" height="20" as="geometry" />
        </mxCell>
        <mxCell id="gxyS9pcXqX11lwIKly3A-223" value="Jenkins pipeline" style="text;html=1;align=center;verticalAlign=middle;resizable=0;points=[];autosize=1;" vertex="1" parent="1">
          <mxGeometry x="841" y="40" width="100" height="20" as="geometry" />
        </mxCell>
        <mxCell id="gxyS9pcXqX11lwIKly3A-225" value="同步" style="text;html=1;align=center;verticalAlign=middle;resizable=0;points=[];autosize=1;" vertex="1" parent="1">
          <mxGeometry x="500" y="730" width="40" height="20" as="geometry" />
        </mxCell>
        <mxCell id="gxyS9pcXqX11lwIKly3A-226" value="同步" style="text;html=1;align=center;verticalAlign=middle;resizable=0;points=[];autosize=1;" vertex="1" parent="1">
          <mxGeometry x="290" y="770" width="40" height="20" as="geometry" />
        </mxCell>
      </root>
    </mxGraphModel>
  </diagram>
</mxfile>
